<svg width="149" height="149" viewBox="0 0 149 149" fill="none" xmlns="http://www.w3.org/2000/svg">
<path d="M92.6594 94.4986C108.847 94.4986 121.97 81.3756 121.97 65.1875C121.97 48.9994 108.847 35.8764 92.6594 35.8764C76.4713 35.8764 63.3483 48.9994 63.3483 65.1875C63.3483 81.3756 76.4713 94.4986 92.6594 94.4986Z" fill="#EFCC00"/>
<path d="M92.6594 18.625V28.9619" stroke="#EFCC00" stroke-width="3" stroke-miterlimit="10" stroke-linecap="round"/>
<path d="M92.6594 101.413V111.75" stroke="#EFCC00" stroke-width="3" stroke-miterlimit="10" stroke-linecap="round"/>
<path d="M46.0969 65.1875H56.4571" stroke="#EFCC00" stroke-width="3" stroke-miterlimit="10" stroke-linecap="round"/>
<path d="M128.885 65.1875H139.222" stroke="#EFCC00" stroke-width="3" stroke-miterlimit="10" stroke-linecap="round"/>
<path d="M59.7397 32.2678L67.0501 39.5781" stroke="#EFCC00" stroke-width="3" stroke-miterlimit="10" stroke-linecap="round"/>
<path d="M118.269 90.7969L125.579 98.1072" stroke="#EFCC00" stroke-width="3" stroke-miterlimit="10" stroke-linecap="round"/>
<path d="M59.7397 98.1072L67.0501 90.7969" stroke="#EFCC00" stroke-width="3" stroke-miterlimit="10" stroke-linecap="round"/>
<path d="M118.269 39.5781L125.579 32.2678" stroke="#EFCC00" stroke-width="3" stroke-miterlimit="10" stroke-linecap="round"/>
<path d="M54.7109 50.9859C62.1321 50.9709 69.4163 52.9843 75.7763 56.8085C82.1363 60.6327 87.3303 66.1223 90.7969 72.6841C95.0438 70.201 99.8059 68.7301 104.713 68.3857C109.621 68.0414 114.542 68.8327 119.094 70.6983C123.646 72.564 127.707 75.4537 130.961 79.1431C134.216 82.8325 136.576 87.2223 137.859 91.9717C139.141 96.721 139.312 101.702 138.358 106.528C137.404 111.354 135.35 115.896 132.356 119.8C129.362 123.703 125.509 126.865 121.096 129.038C116.682 131.211 111.827 132.338 106.907 132.331L54.7109 132.47C43.9054 132.47 33.5425 128.178 25.9019 120.537C18.2612 112.897 13.9688 102.534 13.9688 91.7281C13.9687 80.9226 18.2612 70.5597 25.9019 62.919C33.5425 55.2784 43.9054 50.9859 54.7109 50.9859Z" fill="url(#paint0_linear_6_8)"/>
<path d="M137.667 108.927C142.424 91.8999 132.477 74.2398 115.45 69.4824C98.4221 64.725 80.762 74.6719 76.0046 91.6994C71.2472 108.727 81.1941 126.387 98.2216 131.144C115.249 135.902 132.909 125.955 137.667 108.927Z" fill="url(#paint1_linear_6_8)"/>
<defs>
<linearGradient id="paint0_linear_6_8" x1="44.4206" y1="135.939" x2="93.5208" y2="72.3581" gradientUnits="userSpaceOnUse">
<stop stop-color="#F2F2F2"/>
<stop offset="1" stop-color="#CFCFCF"/>
</linearGradient>
<linearGradient id="paint1_linear_6_8" x1="119.903" y1="88.9288" x2="82.8133" y2="121.231" gradientUnits="userSpaceOnUse">
<stop offset="0.02" stop-color="white"/>
<stop offset="1" stop-color="white" stop-opacity="0"/>
</linearGradient>
</defs>
</svg>
