<svg width="24" height="24" viewBox="0 0 24 24" fill="none" xmlns="http://www.w3.org/2000/svg">
<path fill-rule="evenodd" clip-rule="evenodd" d="M9.5 3.25C6.04822 3.25 3.25 6.04822 3.25 9.5C3.25 12.9517 6.04822 15.75 9.5 15.75C11.2263 15.75 12.787 15.0519 13.9194 13.9194C15.0519 12.787 15.75 11.2263 15.75 9.5C15.75 6.04822 12.9517 3.25 9.5 3.25ZM0.75 9.5C0.75 4.66751 4.66751 0.75 9.5 0.75C14.3325 0.75 18.25 4.66751 18.25 9.5C18.25 11.4649 17.6013 13.2799 16.5079 14.7401L22.8839 21.1161C23.372 21.6043 23.372 22.3957 22.8839 22.8839C22.3957 23.372 21.6043 23.372 21.1161 22.8839L14.7401 16.5079C13.2799 17.6013 11.4649 18.25 9.5 18.25C4.66751 18.25 0.75 14.3325 0.75 9.5Z" fill="white"/>
</svg>
